<mxfile host="app.diagrams.net" agent="Mozilla/5.0 (Windows NT 10.0; Win64; x64; rv:138.0) Gecko/20100101 Firefox/138.0" version="27.0.1" pages="2">
  <diagram name="Page-1" id="3CBx5I_9Riey97dFuYsK">
    <mxGraphModel dx="1572" dy="942" grid="1" gridSize="10" guides="1" tooltips="1" connect="1" arrows="1" fold="1" page="1" pageScale="1" pageWidth="3300" pageHeight="4681" math="0" shadow="0">
      <root>
        <mxCell id="0" />
        <mxCell id="1" parent="0" />
        <mxCell id="hpeD80BDvbG6CqXhuFM--55" value="2a Risk Assessment" style="text;html=1;align=left;verticalAlign=top;whiteSpace=wrap;rounded=0;dashed=1;fillColor=#f5f5f5;fontColor=#333333;strokeColor=#666666;strokeWidth=2;" name="text" vertex="1" parent="1">
          <mxGeometry x="1380" y="440" width="340" height="180" as="geometry" />
        </mxCell>
        <mxCell id="hpeD80BDvbG6CqXhuFM--54" value="1a Train Model" style="text;html=1;align=left;verticalAlign=top;whiteSpace=wrap;rounded=0;dashed=1;fillColor=#f5f5f5;fontColor=#333333;strokeColor=#666666;strokeWidth=2;" name="text" vertex="1" parent="1">
          <mxGeometry x="1030" y="440" width="340" height="180" as="geometry" />
        </mxCell>
        <mxCell id="hpeD80BDvbG6CqXhuFM--53" value="1d Latent Factors" style="text;html=1;align=left;verticalAlign=top;whiteSpace=wrap;rounded=0;dashed=1;fillColor=#f5f5f5;fontColor=#333333;strokeColor=#666666;strokeWidth=2;" name="text" vertex="1" parent="1">
          <mxGeometry x="1030" y="630" width="340" height="130" as="geometry" />
        </mxCell>
        <mxCell id="hpeD80BDvbG6CqXhuFM--52" value="1d Structure Dataset" style="text;html=1;align=left;verticalAlign=bottom;whiteSpace=wrap;rounded=0;dashed=1;fillColor=#f5f5f5;fontColor=#333333;strokeColor=#666666;strokeWidth=2;" name="text" vertex="1" parent="1">
          <mxGeometry x="750" y="500" width="270" height="260" as="geometry" />
        </mxCell>
        <mxCell id="hpeD80BDvbG6CqXhuFM--51" value="1c Fuzzy Rules Creation" style="text;html=1;align=left;verticalAlign=top;whiteSpace=wrap;rounded=0;dashed=1;fillColor=#f5f5f5;fontColor=#333333;strokeColor=#666666;strokeWidth=2;" name="text" vertex="1" parent="1">
          <mxGeometry x="1380" y="310" width="340" height="120" as="geometry" />
        </mxCell>
        <mxCell id="hpeD80BDvbG6CqXhuFM--50" value="1c Individual System Creation" style="text;html=1;align=left;verticalAlign=top;whiteSpace=wrap;rounded=0;dashed=1;fillColor=#f5f5f5;fontColor=#333333;strokeColor=#666666;strokeWidth=2;" name="text" vertex="1" parent="1">
          <mxGeometry x="1030" y="190" width="340" height="240" as="geometry" />
        </mxCell>
        <mxCell id="hpeD80BDvbG6CqXhuFM--49" value="2a Risk Assessment" style="text;html=1;align=left;verticalAlign=top;whiteSpace=wrap;rounded=0;dashed=1;fillColor=#f5f5f5;fontColor=#333333;strokeColor=#666666;strokeWidth=2;" name="text" vertex="1" parent="1">
          <mxGeometry x="750" y="190" width="270" height="300" as="geometry" />
        </mxCell>
        <mxCell id="hpeD80BDvbG6CqXhuFM--48" value="&lt;div&gt;1d Compilation of Characteristics and Other Information&lt;/div&gt;&lt;div&gt;of Interest and Expert Interpretation&lt;/div&gt;" style="text;html=1;align=left;verticalAlign=top;whiteSpace=wrap;rounded=0;dashed=1;fillColor=#f5f5f5;fontColor=#333333;strokeColor=#666666;strokeWidth=2;" name="text" vertex="1" parent="1">
          <mxGeometry x="400" y="190" width="340" height="180" as="geometry" />
        </mxCell>
        <mxCell id="hpeD80BDvbG6CqXhuFM--3" style="edgeStyle=orthogonalEdgeStyle;rounded=0;orthogonalLoop=1;jettySize=auto;html=1;exitX=1;exitY=0.5;exitDx=0;exitDy=0;entryX=0;entryY=0.5;entryDx=0;entryDy=0;" edge="1" parent="1" source="hpeD80BDvbG6CqXhuFM--1" target="hpeD80BDvbG6CqXhuFM--2">
          <mxGeometry relative="1" as="geometry" />
        </mxCell>
        <mxCell id="hpeD80BDvbG6CqXhuFM--1" value="data&#xa;Raw Patient Data" style="rectangle;fillColor=#fff2cc;strokeColor=#d6b656;" name="data" vertex="1" parent="1">
          <mxGeometry x="340" y="230" width="100" height="50" as="geometry" />
        </mxCell>
        <mxCell id="hpeD80BDvbG6CqXhuFM--8" style="edgeStyle=orthogonalEdgeStyle;rounded=0;orthogonalLoop=1;jettySize=auto;html=1;exitX=1;exitY=0.5;exitDx=0;exitDy=0;entryX=0;entryY=0.5;entryDx=0;entryDy=0;" edge="1" parent="1" source="hpeD80BDvbG6CqXhuFM--2" target="hpeD80BDvbG6CqXhuFM--7">
          <mxGeometry relative="1" as="geometry" />
        </mxCell>
        <mxCell id="hpeD80BDvbG6CqXhuFM--2" value="transform" style="rounded=1;whiteSpace=wrap;html=1;arcSize=50;fillColor=#f8cecc;strokeColor=#b85450;" name="transform" vertex="1" parent="1">
          <mxGeometry x="520" y="230" width="100" height="50" as="geometry" />
        </mxCell>
        <mxCell id="hpeD80BDvbG6CqXhuFM--4" value="actor" style="triangle;fillColor=#ffe6cc;strokeColor=#d79b00;" name="actor" vertex="1" parent="1">
          <mxGeometry x="520" y="350" width="100" height="50" as="geometry" />
        </mxCell>
        <mxCell id="hpeD80BDvbG6CqXhuFM--6" value="&lt;div&gt;error&lt;/div&gt;&lt;div&gt;--&amp;gt;&lt;/div&gt;" style="text;html=1;align=center;verticalAlign=middle;whiteSpace=wrap;rounded=0;dashed=1;fillColor=#f5f5f5;fontColor=#333333;strokeColor=#666666;strokeWidth=2;horizontal=0;" name="text" vertex="1" parent="1">
          <mxGeometry x="555" y="280" width="30" height="80" as="geometry" />
        </mxCell>
        <mxCell id="hpeD80BDvbG6CqXhuFM--33" style="edgeStyle=orthogonalEdgeStyle;rounded=0;orthogonalLoop=1;jettySize=auto;html=1;exitX=1;exitY=0.5;exitDx=0;exitDy=0;entryX=0.25;entryY=0;entryDx=0;entryDy=0;" edge="1" parent="1" source="hpeD80BDvbG6CqXhuFM--7" target="hpeD80BDvbG6CqXhuFM--9">
          <mxGeometry relative="1" as="geometry" />
        </mxCell>
        <mxCell id="hpeD80BDvbG6CqXhuFM--7" value="data&#xa;Structured Data" style="rectangle;fillColor=#fff2cc;strokeColor=#d6b656;" name="data" vertex="1" parent="1">
          <mxGeometry x="700" y="230" width="100" height="50" as="geometry" />
        </mxCell>
        <mxCell id="hpeD80BDvbG6CqXhuFM--14" style="edgeStyle=orthogonalEdgeStyle;rounded=0;orthogonalLoop=1;jettySize=auto;html=1;exitX=0.5;exitY=1;exitDx=0;exitDy=0;entryX=0.5;entryY=0;entryDx=0;entryDy=0;" edge="1" parent="1" source="hpeD80BDvbG6CqXhuFM--9" target="hpeD80BDvbG6CqXhuFM--13">
          <mxGeometry relative="1" as="geometry" />
        </mxCell>
        <mxCell id="hpeD80BDvbG6CqXhuFM--9" value="infer:deduce" style="rounded=1;whiteSpace=wrap;html=1;arcSize=50;fillColor=#bac8d3;strokeColor=#23445d;" name="infer:deduce" vertex="1" parent="1">
          <mxGeometry x="830" y="340" width="100" height="50" as="geometry" />
        </mxCell>
        <mxCell id="hpeD80BDvbG6CqXhuFM--34" style="edgeStyle=orthogonalEdgeStyle;rounded=0;orthogonalLoop=1;jettySize=auto;html=1;exitX=0;exitY=0.5;exitDx=0;exitDy=0;entryX=0.75;entryY=0;entryDx=0;entryDy=0;" edge="1" parent="1" source="hpeD80BDvbG6CqXhuFM--11" target="hpeD80BDvbG6CqXhuFM--9">
          <mxGeometry relative="1" as="geometry" />
        </mxCell>
        <mxCell id="hpeD80BDvbG6CqXhuFM--11" value="model:semantic&#xa;Cascaded Expert&#xa;Systems" style="shape=hexagon;perimeter=hexagonPerimeter2;fillColor=#b0e3e6;strokeColor=#0e8088;" name="model" vertex="1" parent="1">
          <mxGeometry x="960" y="230" width="120" height="50" as="geometry" />
        </mxCell>
        <mxCell id="hpeD80BDvbG6CqXhuFM--16" style="edgeStyle=orthogonalEdgeStyle;rounded=0;orthogonalLoop=1;jettySize=auto;html=1;exitX=0.5;exitY=1;exitDx=0;exitDy=0;entryX=0.5;entryY=0;entryDx=0;entryDy=0;" edge="1" parent="1" source="hpeD80BDvbG6CqXhuFM--13" target="hpeD80BDvbG6CqXhuFM--15">
          <mxGeometry relative="1" as="geometry" />
        </mxCell>
        <mxCell id="hpeD80BDvbG6CqXhuFM--13" value="symbol&#xa;Risk Assessment" style="rectangle;fillColor=#dae8fc;strokeColor=#6c8ebf;" name="symbol" vertex="1" parent="1">
          <mxGeometry x="830" y="470" width="100" height="50" as="geometry" />
        </mxCell>
        <mxCell id="hpeD80BDvbG6CqXhuFM--18" style="edgeStyle=orthogonalEdgeStyle;rounded=0;orthogonalLoop=1;jettySize=auto;html=1;exitX=0.5;exitY=1;exitDx=0;exitDy=0;entryX=0;entryY=0.5;entryDx=0;entryDy=0;" edge="1" parent="1" source="hpeD80BDvbG6CqXhuFM--15" target="hpeD80BDvbG6CqXhuFM--17">
          <mxGeometry relative="1" as="geometry" />
        </mxCell>
        <mxCell id="hpeD80BDvbG6CqXhuFM--15" value="transform" style="rounded=1;whiteSpace=wrap;html=1;arcSize=50;fillColor=#f8cecc;strokeColor=#b85450;" name="transform" vertex="1" parent="1">
          <mxGeometry x="830" y="600" width="100" height="50" as="geometry" />
        </mxCell>
        <mxCell id="hpeD80BDvbG6CqXhuFM--20" style="edgeStyle=orthogonalEdgeStyle;rounded=0;orthogonalLoop=1;jettySize=auto;html=1;exitX=1;exitY=0.5;exitDx=0;exitDy=0;entryX=0;entryY=0.5;entryDx=0;entryDy=0;" edge="1" parent="1" source="hpeD80BDvbG6CqXhuFM--17" target="hpeD80BDvbG6CqXhuFM--19">
          <mxGeometry relative="1" as="geometry" />
        </mxCell>
        <mxCell id="hpeD80BDvbG6CqXhuFM--17" value="data&#xa;Balanced Dataset" style="rectangle;fillColor=#fff2cc;strokeColor=#d6b656;" name="data" vertex="1" parent="1">
          <mxGeometry x="960" y="690" width="100" height="50" as="geometry" />
        </mxCell>
        <mxCell id="hpeD80BDvbG6CqXhuFM--22" style="edgeStyle=orthogonalEdgeStyle;rounded=0;orthogonalLoop=1;jettySize=auto;html=1;exitX=0.5;exitY=0;exitDx=0;exitDy=0;entryX=0.5;entryY=1;entryDx=0;entryDy=0;" edge="1" parent="1" source="hpeD80BDvbG6CqXhuFM--19" target="hpeD80BDvbG6CqXhuFM--21">
          <mxGeometry relative="1" as="geometry" />
        </mxCell>
        <mxCell id="hpeD80BDvbG6CqXhuFM--19" value="transform" style="rounded=1;whiteSpace=wrap;html=1;arcSize=50;fillColor=#f8cecc;strokeColor=#b85450;" name="transform" vertex="1" parent="1">
          <mxGeometry x="1140" y="690" width="100" height="50" as="geometry" />
        </mxCell>
        <mxCell id="hpeD80BDvbG6CqXhuFM--24" style="edgeStyle=orthogonalEdgeStyle;rounded=0;orthogonalLoop=1;jettySize=auto;html=1;exitX=0.5;exitY=0;exitDx=0;exitDy=0;entryX=0.5;entryY=1;entryDx=0;entryDy=0;" edge="1" parent="1" source="hpeD80BDvbG6CqXhuFM--21" target="hpeD80BDvbG6CqXhuFM--23">
          <mxGeometry relative="1" as="geometry" />
        </mxCell>
        <mxCell id="hpeD80BDvbG6CqXhuFM--21" value="data&#xa;Latent Factors" style="rectangle;fillColor=#fff2cc;strokeColor=#d6b656;" name="data" vertex="1" parent="1">
          <mxGeometry x="1140" y="600" width="100" height="50" as="geometry" />
        </mxCell>
        <mxCell id="hpeD80BDvbG6CqXhuFM--26" style="edgeStyle=orthogonalEdgeStyle;rounded=0;orthogonalLoop=1;jettySize=auto;html=1;exitX=1;exitY=0.5;exitDx=0;exitDy=0;entryX=0;entryY=0.5;entryDx=0;entryDy=0;" edge="1" parent="1" source="hpeD80BDvbG6CqXhuFM--23" target="hpeD80BDvbG6CqXhuFM--25">
          <mxGeometry relative="1" as="geometry" />
        </mxCell>
        <mxCell id="hpeD80BDvbG6CqXhuFM--23" value="generate:train" style="rounded=1;whiteSpace=wrap;html=1;arcSize=50;fillColor=#e1d5e7;strokeColor=#9673a6;" name="generate:train" vertex="1" parent="1">
          <mxGeometry x="1140" y="470" width="100" height="50" as="geometry" />
        </mxCell>
        <mxCell id="hpeD80BDvbG6CqXhuFM--28" style="edgeStyle=orthogonalEdgeStyle;rounded=0;orthogonalLoop=1;jettySize=auto;html=1;exitX=1;exitY=0.5;exitDx=0;exitDy=0;entryX=0;entryY=0.5;entryDx=0;entryDy=0;" edge="1" parent="1" source="hpeD80BDvbG6CqXhuFM--25" target="hpeD80BDvbG6CqXhuFM--27">
          <mxGeometry relative="1" as="geometry" />
        </mxCell>
        <mxCell id="hpeD80BDvbG6CqXhuFM--25" value="model:statistical&#xa;ML Model" style="shape=hexagon;perimeter=hexagonPerimeter2;fillColor=#b0e3e6;strokeColor=#0e8088;" name="model" vertex="1" parent="1">
          <mxGeometry x="1310" y="470" width="120" height="50" as="geometry" />
        </mxCell>
        <mxCell id="hpeD80BDvbG6CqXhuFM--32" style="edgeStyle=orthogonalEdgeStyle;rounded=0;orthogonalLoop=1;jettySize=auto;html=1;exitX=1;exitY=0.5;exitDx=0;exitDy=0;" edge="1" parent="1" source="hpeD80BDvbG6CqXhuFM--27" target="hpeD80BDvbG6CqXhuFM--31">
          <mxGeometry relative="1" as="geometry" />
        </mxCell>
        <mxCell id="hpeD80BDvbG6CqXhuFM--27" value="infer:deduce" style="rounded=1;whiteSpace=wrap;html=1;arcSize=50;fillColor=#bac8d3;strokeColor=#23445d;" name="infer:deduce" vertex="1" parent="1">
          <mxGeometry x="1500" y="470" width="100" height="50" as="geometry" />
        </mxCell>
        <mxCell id="hpeD80BDvbG6CqXhuFM--30" style="edgeStyle=orthogonalEdgeStyle;rounded=0;orthogonalLoop=1;jettySize=auto;html=1;exitX=0.5;exitY=0;exitDx=0;exitDy=0;entryX=0.5;entryY=1;entryDx=0;entryDy=0;" edge="1" parent="1" source="hpeD80BDvbG6CqXhuFM--29" target="hpeD80BDvbG6CqXhuFM--27">
          <mxGeometry relative="1" as="geometry" />
        </mxCell>
        <mxCell id="hpeD80BDvbG6CqXhuFM--29" value="data&#xa;Patient Data" style="rectangle;fillColor=#fff2cc;strokeColor=#d6b656;" name="data" vertex="1" parent="1">
          <mxGeometry x="1500" y="600" width="100" height="50" as="geometry" />
        </mxCell>
        <mxCell id="hpeD80BDvbG6CqXhuFM--31" value="symbol&#xa;Risk Assessment" style="rectangle;fillColor=#dae8fc;strokeColor=#6c8ebf;" name="symbol" vertex="1" parent="1">
          <mxGeometry x="1680" y="470" width="100" height="50" as="geometry" />
        </mxCell>
        <mxCell id="hpeD80BDvbG6CqXhuFM--37" style="edgeStyle=orthogonalEdgeStyle;rounded=0;orthogonalLoop=1;jettySize=auto;html=1;exitX=0.5;exitY=0;exitDx=0;exitDy=0;entryX=1;entryY=0.5;entryDx=0;entryDy=0;" edge="1" parent="1" source="hpeD80BDvbG6CqXhuFM--35" target="hpeD80BDvbG6CqXhuFM--11">
          <mxGeometry relative="1" as="geometry" />
        </mxCell>
        <mxCell id="hpeD80BDvbG6CqXhuFM--35" value="generate:engineer" style="rounded=1;whiteSpace=wrap;html=1;arcSize=50;fillColor=#e1d5e7;strokeColor=#9673a6;" name="generate:engineer" vertex="1" parent="1">
          <mxGeometry x="1140" y="340" width="100" height="50" as="geometry" />
        </mxCell>
        <mxCell id="hpeD80BDvbG6CqXhuFM--38" value="symbol&#xa;Fuzzy Rules" style="rectangle;fillColor=#dae8fc;strokeColor=#6c8ebf;" name="symbol" vertex="1" parent="1">
          <mxGeometry x="1320" y="340" width="100" height="50" as="geometry" />
        </mxCell>
        <mxCell id="hpeD80BDvbG6CqXhuFM--40" value="generate:engineer" style="rounded=1;whiteSpace=wrap;html=1;arcSize=50;fillColor=#e1d5e7;strokeColor=#9673a6;" name="generate:engineer" vertex="1" parent="1">
          <mxGeometry x="1500" y="340" width="100" height="50" as="geometry" />
        </mxCell>
        <mxCell id="hpeD80BDvbG6CqXhuFM--47" style="edgeStyle=orthogonalEdgeStyle;rounded=0;orthogonalLoop=1;jettySize=auto;html=1;exitX=0;exitY=0.5;exitDx=0;exitDy=0;entryX=1;entryY=0.5;entryDx=0;entryDy=0;" edge="1" parent="1" source="hpeD80BDvbG6CqXhuFM--42" target="hpeD80BDvbG6CqXhuFM--40">
          <mxGeometry relative="1" as="geometry" />
        </mxCell>
        <mxCell id="hpeD80BDvbG6CqXhuFM--42" value="actor&#xa;Domain Experts" style="triangle;fillColor=#ffe6cc;strokeColor=#d79b00;" name="actor" vertex="1" parent="1">
          <mxGeometry x="1680" y="340" width="100" height="50" as="geometry" />
        </mxCell>
        <mxCell id="hpeD80BDvbG6CqXhuFM--44" value="&lt;div&gt;error&lt;/div&gt;&lt;div&gt;&amp;lt;--&lt;/div&gt;" style="text;html=1;align=center;verticalAlign=middle;whiteSpace=wrap;rounded=0;dashed=1;fillColor=#f5f5f5;fontColor=#333333;strokeColor=#666666;strokeWidth=2;" name="text" vertex="1" parent="1">
          <mxGeometry x="1420" y="350" width="80" height="30" as="geometry" />
        </mxCell>
        <mxCell id="hpeD80BDvbG6CqXhuFM--46" value="&lt;div&gt;error&lt;/div&gt;&lt;div&gt;&amp;lt;--&lt;/div&gt;" style="text;html=1;align=center;verticalAlign=middle;whiteSpace=wrap;rounded=0;dashed=1;fillColor=#f5f5f5;fontColor=#333333;strokeColor=#666666;strokeWidth=2;" name="text" vertex="1" parent="1">
          <mxGeometry x="1240" y="350" width="80" height="30" as="geometry" />
        </mxCell>
      </root>
    </mxGraphModel>
  </diagram>
  <diagram id="LuS6nH6ILFuewrzX62eL" name="Page-2">
    <mxGraphModel dx="1123" dy="673" grid="1" gridSize="10" guides="1" tooltips="1" connect="1" arrows="1" fold="1" page="1" pageScale="1" pageWidth="3300" pageHeight="4681" math="0" shadow="0">
      <root>
        <mxCell id="0" />
        <mxCell id="1" parent="0" />
        <mxCell id="WC2whAqA1n3xQGrgogss-1" value="2a Risk Assessment" style="text;html=1;align=left;verticalAlign=top;whiteSpace=wrap;rounded=0;dashed=1;fillColor=#f5f5f5;fontColor=#333333;strokeColor=#666666;strokeWidth=2;" name="text" vertex="1" parent="1">
          <mxGeometry x="1380" y="440" width="340" height="180" as="geometry" />
        </mxCell>
        <mxCell id="WC2whAqA1n3xQGrgogss-2" value="1a Train Model" style="text;html=1;align=left;verticalAlign=top;whiteSpace=wrap;rounded=0;dashed=1;fillColor=#f5f5f5;fontColor=#333333;strokeColor=#666666;strokeWidth=2;" name="text" vertex="1" parent="1">
          <mxGeometry x="1030" y="440" width="340" height="180" as="geometry" />
        </mxCell>
        <mxCell id="WC2whAqA1n3xQGrgogss-3" value="1d Latent Factors" style="text;html=1;align=left;verticalAlign=top;whiteSpace=wrap;rounded=0;dashed=1;fillColor=#f5f5f5;fontColor=#333333;strokeColor=#666666;strokeWidth=2;" name="text" vertex="1" parent="1">
          <mxGeometry x="1030" y="630" width="340" height="130" as="geometry" />
        </mxCell>
        <mxCell id="WC2whAqA1n3xQGrgogss-4" value="1d Structure Dataset" style="text;html=1;align=left;verticalAlign=bottom;whiteSpace=wrap;rounded=0;dashed=1;fillColor=#f5f5f5;fontColor=#333333;strokeColor=#666666;strokeWidth=2;" name="text" vertex="1" parent="1">
          <mxGeometry x="750" y="500" width="270" height="260" as="geometry" />
        </mxCell>
        <mxCell id="WC2whAqA1n3xQGrgogss-5" value="1c Fuzzy Rules Creation" style="text;html=1;align=left;verticalAlign=top;whiteSpace=wrap;rounded=0;dashed=1;fillColor=#f5f5f5;fontColor=#333333;strokeColor=#666666;strokeWidth=2;" name="text" vertex="1" parent="1">
          <mxGeometry x="1380" y="310" width="340" height="120" as="geometry" />
        </mxCell>
        <mxCell id="WC2whAqA1n3xQGrgogss-6" value="1c Individual System Creation" style="text;html=1;align=left;verticalAlign=top;whiteSpace=wrap;rounded=0;dashed=1;fillColor=#f5f5f5;fontColor=#333333;strokeColor=#666666;strokeWidth=2;" name="text" vertex="1" parent="1">
          <mxGeometry x="1030" y="190" width="340" height="240" as="geometry" />
        </mxCell>
        <mxCell id="WC2whAqA1n3xQGrgogss-7" value="2a Risk Assessment" style="text;html=1;align=left;verticalAlign=top;whiteSpace=wrap;rounded=0;dashed=1;fillColor=#f5f5f5;fontColor=#333333;strokeColor=#666666;strokeWidth=2;" name="text" vertex="1" parent="1">
          <mxGeometry x="750" y="190" width="270" height="300" as="geometry" />
        </mxCell>
        <mxCell id="WC2whAqA1n3xQGrgogss-8" value="&lt;div&gt;1d Compilation of Characteristics and Other Information&lt;/div&gt;&lt;div&gt;of Interest and Expert Interpretation&lt;/div&gt;" style="text;html=1;align=left;verticalAlign=top;whiteSpace=wrap;rounded=0;dashed=1;fillColor=#f5f5f5;fontColor=#333333;strokeColor=#666666;strokeWidth=2;" name="text" vertex="1" parent="1">
          <mxGeometry x="400" y="190" width="340" height="190" as="geometry" />
        </mxCell>
        <mxCell id="WC2whAqA1n3xQGrgogss-9" style="edgeStyle=orthogonalEdgeStyle;rounded=0;orthogonalLoop=1;jettySize=auto;html=1;exitX=1;exitY=0.5;exitDx=0;exitDy=0;entryX=0;entryY=0.5;entryDx=0;entryDy=0;" edge="1" parent="1" source="WC2whAqA1n3xQGrgogss-10" target="WC2whAqA1n3xQGrgogss-12">
          <mxGeometry relative="1" as="geometry" />
        </mxCell>
        <mxCell id="WC2whAqA1n3xQGrgogss-10" value="data&#xa;Raw Patient Data" style="rectangle;fillColor=#fff2cc;strokeColor=#d6b656;" name="data" vertex="1" parent="1">
          <mxGeometry x="340" y="230" width="100" height="50" as="geometry" />
        </mxCell>
        <mxCell id="WC2whAqA1n3xQGrgogss-11" style="edgeStyle=orthogonalEdgeStyle;rounded=0;orthogonalLoop=1;jettySize=auto;html=1;exitX=1;exitY=0.5;exitDx=0;exitDy=0;entryX=0;entryY=0.5;entryDx=0;entryDy=0;" edge="1" parent="1" source="WC2whAqA1n3xQGrgogss-12" target="WC2whAqA1n3xQGrgogss-16">
          <mxGeometry relative="1" as="geometry" />
        </mxCell>
        <mxCell id="WC2whAqA1n3xQGrgogss-12" value="transform" style="rounded=1;whiteSpace=wrap;html=1;arcSize=50;fillColor=#f8cecc;strokeColor=#b85450;" name="transform" vertex="1" parent="1">
          <mxGeometry x="520" y="230" width="100" height="50" as="geometry" />
        </mxCell>
        <mxCell id="WC2whAqA1n3xQGrgogss-14" value="removed actor component" style="text;html=1;align=center;verticalAlign=middle;whiteSpace=wrap;rounded=0;dashed=1;fillColor=#f5f5f5;fontColor=#333333;strokeColor=#666666;strokeWidth=2;horizontal=1;" name="text" vertex="1" parent="1">
          <mxGeometry x="530" y="300" width="80" height="40" as="geometry" />
        </mxCell>
        <mxCell id="WC2whAqA1n3xQGrgogss-49" style="edgeStyle=orthogonalEdgeStyle;rounded=0;orthogonalLoop=1;jettySize=auto;html=1;exitX=1;exitY=0.5;exitDx=0;exitDy=0;entryX=0.25;entryY=0;entryDx=0;entryDy=0;" edge="1" parent="1" source="WC2whAqA1n3xQGrgogss-16" target="WC2whAqA1n3xQGrgogss-18">
          <mxGeometry relative="1" as="geometry" />
        </mxCell>
        <mxCell id="WC2whAqA1n3xQGrgogss-16" value="data&#xa;Structured Data" style="rectangle;fillColor=#fff2cc;strokeColor=#d6b656;" name="data" vertex="1" parent="1">
          <mxGeometry x="700" y="230" width="100" height="50" as="geometry" />
        </mxCell>
        <mxCell id="WC2whAqA1n3xQGrgogss-17" style="edgeStyle=orthogonalEdgeStyle;rounded=0;orthogonalLoop=1;jettySize=auto;html=1;exitX=0.5;exitY=1;exitDx=0;exitDy=0;entryX=0.5;entryY=0;entryDx=0;entryDy=0;" edge="1" parent="1" source="WC2whAqA1n3xQGrgogss-18" target="WC2whAqA1n3xQGrgogss-22">
          <mxGeometry relative="1" as="geometry" />
        </mxCell>
        <mxCell id="WC2whAqA1n3xQGrgogss-18" value="infer:deduce" style="rounded=1;whiteSpace=wrap;html=1;arcSize=50;fillColor=#bac8d3;strokeColor=#23445d;" name="infer:deduce" vertex="1" parent="1">
          <mxGeometry x="830" y="340" width="100" height="50" as="geometry" />
        </mxCell>
        <mxCell id="WC2whAqA1n3xQGrgogss-19" style="edgeStyle=orthogonalEdgeStyle;rounded=0;orthogonalLoop=1;jettySize=auto;html=1;exitX=0;exitY=0.5;exitDx=0;exitDy=0;entryX=0.75;entryY=0;entryDx=0;entryDy=0;" edge="1" parent="1" source="WC2whAqA1n3xQGrgogss-20" target="WC2whAqA1n3xQGrgogss-18">
          <mxGeometry relative="1" as="geometry" />
        </mxCell>
        <mxCell id="WC2whAqA1n3xQGrgogss-20" value="model:semantic&#xa;Cascaded Expert&#xa;Systems" style="shape=hexagon;perimeter=hexagonPerimeter2;fillColor=#b0e3e6;strokeColor=#0e8088;" name="model" vertex="1" parent="1">
          <mxGeometry x="960" y="230" width="120" height="50" as="geometry" />
        </mxCell>
        <mxCell id="WC2whAqA1n3xQGrgogss-21" style="edgeStyle=orthogonalEdgeStyle;rounded=0;orthogonalLoop=1;jettySize=auto;html=1;exitX=0.5;exitY=1;exitDx=0;exitDy=0;entryX=0.5;entryY=0;entryDx=0;entryDy=0;" edge="1" parent="1" source="WC2whAqA1n3xQGrgogss-22" target="WC2whAqA1n3xQGrgogss-24">
          <mxGeometry relative="1" as="geometry" />
        </mxCell>
        <mxCell id="WC2whAqA1n3xQGrgogss-22" value="symbol&#xa;Risk Assessment" style="rectangle;fillColor=#dae8fc;strokeColor=#6c8ebf;" name="symbol" vertex="1" parent="1">
          <mxGeometry x="830" y="470" width="100" height="50" as="geometry" />
        </mxCell>
        <mxCell id="WC2whAqA1n3xQGrgogss-23" style="edgeStyle=orthogonalEdgeStyle;rounded=0;orthogonalLoop=1;jettySize=auto;html=1;exitX=0.5;exitY=1;exitDx=0;exitDy=0;entryX=0;entryY=0.5;entryDx=0;entryDy=0;" edge="1" parent="1" source="WC2whAqA1n3xQGrgogss-24" target="WC2whAqA1n3xQGrgogss-26">
          <mxGeometry relative="1" as="geometry" />
        </mxCell>
        <mxCell id="WC2whAqA1n3xQGrgogss-24" value="transform" style="rounded=1;whiteSpace=wrap;html=1;arcSize=50;fillColor=#f8cecc;strokeColor=#b85450;" name="transform" vertex="1" parent="1">
          <mxGeometry x="830" y="600" width="100" height="50" as="geometry" />
        </mxCell>
        <mxCell id="WC2whAqA1n3xQGrgogss-25" style="edgeStyle=orthogonalEdgeStyle;rounded=0;orthogonalLoop=1;jettySize=auto;html=1;exitX=1;exitY=0.5;exitDx=0;exitDy=0;entryX=0;entryY=0.5;entryDx=0;entryDy=0;" edge="1" parent="1" source="WC2whAqA1n3xQGrgogss-26" target="WC2whAqA1n3xQGrgogss-28">
          <mxGeometry relative="1" as="geometry" />
        </mxCell>
        <mxCell id="WC2whAqA1n3xQGrgogss-26" value="data&#xa;Balanced Dataset" style="rectangle;fillColor=#fff2cc;strokeColor=#d6b656;" name="data" vertex="1" parent="1">
          <mxGeometry x="960" y="690" width="100" height="50" as="geometry" />
        </mxCell>
        <mxCell id="WC2whAqA1n3xQGrgogss-27" style="edgeStyle=orthogonalEdgeStyle;rounded=0;orthogonalLoop=1;jettySize=auto;html=1;exitX=0.5;exitY=0;exitDx=0;exitDy=0;entryX=0.5;entryY=1;entryDx=0;entryDy=0;" edge="1" parent="1" source="WC2whAqA1n3xQGrgogss-28" target="WC2whAqA1n3xQGrgogss-30">
          <mxGeometry relative="1" as="geometry" />
        </mxCell>
        <mxCell id="WC2whAqA1n3xQGrgogss-28" value="transform" style="rounded=1;whiteSpace=wrap;html=1;arcSize=50;fillColor=#f8cecc;strokeColor=#b85450;" name="transform" vertex="1" parent="1">
          <mxGeometry x="1140" y="690" width="100" height="50" as="geometry" />
        </mxCell>
        <mxCell id="WC2whAqA1n3xQGrgogss-29" style="edgeStyle=orthogonalEdgeStyle;rounded=0;orthogonalLoop=1;jettySize=auto;html=1;exitX=0.5;exitY=0;exitDx=0;exitDy=0;entryX=0.5;entryY=1;entryDx=0;entryDy=0;" edge="1" parent="1" source="WC2whAqA1n3xQGrgogss-30" target="WC2whAqA1n3xQGrgogss-32">
          <mxGeometry relative="1" as="geometry" />
        </mxCell>
        <mxCell id="WC2whAqA1n3xQGrgogss-30" value="data&#xa;Latent Factors" style="rectangle;fillColor=#fff2cc;strokeColor=#d6b656;" name="data" vertex="1" parent="1">
          <mxGeometry x="1140" y="600" width="100" height="50" as="geometry" />
        </mxCell>
        <mxCell id="WC2whAqA1n3xQGrgogss-31" style="edgeStyle=orthogonalEdgeStyle;rounded=0;orthogonalLoop=1;jettySize=auto;html=1;exitX=1;exitY=0.5;exitDx=0;exitDy=0;entryX=0;entryY=0.5;entryDx=0;entryDy=0;" edge="1" parent="1" source="WC2whAqA1n3xQGrgogss-32" target="WC2whAqA1n3xQGrgogss-34">
          <mxGeometry relative="1" as="geometry" />
        </mxCell>
        <mxCell id="WC2whAqA1n3xQGrgogss-32" value="generate:train" style="rounded=1;whiteSpace=wrap;html=1;arcSize=50;fillColor=#e1d5e7;strokeColor=#9673a6;" name="generate:train" vertex="1" parent="1">
          <mxGeometry x="1140" y="470" width="100" height="50" as="geometry" />
        </mxCell>
        <mxCell id="WC2whAqA1n3xQGrgogss-33" style="edgeStyle=orthogonalEdgeStyle;rounded=0;orthogonalLoop=1;jettySize=auto;html=1;exitX=1;exitY=0.5;exitDx=0;exitDy=0;entryX=0;entryY=0.5;entryDx=0;entryDy=0;" edge="1" parent="1" source="WC2whAqA1n3xQGrgogss-34" target="WC2whAqA1n3xQGrgogss-36">
          <mxGeometry relative="1" as="geometry" />
        </mxCell>
        <mxCell id="WC2whAqA1n3xQGrgogss-34" value="model:statistical&#xa;ML Model" style="shape=hexagon;perimeter=hexagonPerimeter2;fillColor=#b0e3e6;strokeColor=#0e8088;" name="model" vertex="1" parent="1">
          <mxGeometry x="1310" y="470" width="120" height="50" as="geometry" />
        </mxCell>
        <mxCell id="WC2whAqA1n3xQGrgogss-35" style="edgeStyle=orthogonalEdgeStyle;rounded=0;orthogonalLoop=1;jettySize=auto;html=1;exitX=1;exitY=0.5;exitDx=0;exitDy=0;" edge="1" parent="1" source="WC2whAqA1n3xQGrgogss-36" target="WC2whAqA1n3xQGrgogss-39">
          <mxGeometry relative="1" as="geometry" />
        </mxCell>
        <mxCell id="WC2whAqA1n3xQGrgogss-36" value="infer:deduce" style="rounded=1;whiteSpace=wrap;html=1;arcSize=50;fillColor=#bac8d3;strokeColor=#23445d;" name="infer:deduce" vertex="1" parent="1">
          <mxGeometry x="1500" y="470" width="100" height="50" as="geometry" />
        </mxCell>
        <mxCell id="WC2whAqA1n3xQGrgogss-37" style="edgeStyle=orthogonalEdgeStyle;rounded=0;orthogonalLoop=1;jettySize=auto;html=1;exitX=0.5;exitY=0;exitDx=0;exitDy=0;entryX=0.5;entryY=1;entryDx=0;entryDy=0;" edge="1" parent="1" source="WC2whAqA1n3xQGrgogss-38" target="WC2whAqA1n3xQGrgogss-36">
          <mxGeometry relative="1" as="geometry" />
        </mxCell>
        <mxCell id="WC2whAqA1n3xQGrgogss-38" value="data&#xa;Patient Data" style="rectangle;fillColor=#fff2cc;strokeColor=#d6b656;" name="data" vertex="1" parent="1">
          <mxGeometry x="1500" y="600" width="100" height="50" as="geometry" />
        </mxCell>
        <mxCell id="WC2whAqA1n3xQGrgogss-39" value="symbol&#xa;Risk Assessment" style="rectangle;fillColor=#dae8fc;strokeColor=#6c8ebf;" name="symbol" vertex="1" parent="1">
          <mxGeometry x="1680" y="470" width="100" height="50" as="geometry" />
        </mxCell>
        <mxCell id="WC2whAqA1n3xQGrgogss-56" style="edgeStyle=orthogonalEdgeStyle;rounded=0;orthogonalLoop=1;jettySize=auto;html=1;exitX=0;exitY=0.5;exitDx=0;exitDy=0;entryX=1;entryY=0.5;entryDx=0;entryDy=0;" edge="1" parent="1" source="WC2whAqA1n3xQGrgogss-42" target="WC2whAqA1n3xQGrgogss-52">
          <mxGeometry relative="1" as="geometry" />
        </mxCell>
        <mxCell id="WC2whAqA1n3xQGrgogss-42" value="symbol&#xa;Fuzzy Rules" style="rectangle;fillColor=#dae8fc;strokeColor=#6c8ebf;" name="symbol" vertex="1" parent="1">
          <mxGeometry x="1320" y="230" width="100" height="50" as="geometry" />
        </mxCell>
        <mxCell id="WC2whAqA1n3xQGrgogss-51" style="edgeStyle=orthogonalEdgeStyle;rounded=0;orthogonalLoop=1;jettySize=auto;html=1;exitX=0;exitY=0.5;exitDx=0;exitDy=0;entryX=1;entryY=0.5;entryDx=0;entryDy=0;" edge="1" parent="1" source="WC2whAqA1n3xQGrgogss-43" target="WC2whAqA1n3xQGrgogss-50">
          <mxGeometry relative="1" as="geometry" />
        </mxCell>
        <mxCell id="WC2whAqA1n3xQGrgogss-43" value="generate:engineer" style="rounded=1;whiteSpace=wrap;html=1;arcSize=50;fillColor=#e1d5e7;strokeColor=#9673a6;" name="generate:engineer" vertex="1" parent="1">
          <mxGeometry x="1500" y="340" width="100" height="50" as="geometry" />
        </mxCell>
        <mxCell id="WC2whAqA1n3xQGrgogss-44" style="edgeStyle=orthogonalEdgeStyle;rounded=0;orthogonalLoop=1;jettySize=auto;html=1;exitX=0;exitY=0.5;exitDx=0;exitDy=0;entryX=1;entryY=0.5;entryDx=0;entryDy=0;" edge="1" parent="1" source="WC2whAqA1n3xQGrgogss-45" target="WC2whAqA1n3xQGrgogss-43">
          <mxGeometry relative="1" as="geometry" />
        </mxCell>
        <mxCell id="WC2whAqA1n3xQGrgogss-45" value="actor&#xa;Domain Experts" style="triangle;fillColor=#ffe6cc;strokeColor=#d79b00;" name="actor" vertex="1" parent="1">
          <mxGeometry x="1680" y="340" width="100" height="50" as="geometry" />
        </mxCell>
        <mxCell id="WC2whAqA1n3xQGrgogss-46" value="added infer:deduce process" style="text;html=1;align=center;verticalAlign=middle;whiteSpace=wrap;rounded=0;dashed=1;fillColor=#f5f5f5;fontColor=#333333;strokeColor=#666666;strokeWidth=2;" name="text" vertex="1" parent="1">
          <mxGeometry x="1440" y="180" width="120" height="50" as="geometry" />
        </mxCell>
        <mxCell id="WC2whAqA1n3xQGrgogss-55" style="edgeStyle=orthogonalEdgeStyle;rounded=0;orthogonalLoop=1;jettySize=auto;html=1;exitX=0;exitY=0.5;exitDx=0;exitDy=0;entryX=0.5;entryY=1;entryDx=0;entryDy=0;" edge="1" parent="1" source="WC2whAqA1n3xQGrgogss-50" target="WC2whAqA1n3xQGrgogss-52">
          <mxGeometry relative="1" as="geometry" />
        </mxCell>
        <mxCell id="WC2whAqA1n3xQGrgogss-50" value="model" style="shape=hexagon;perimeter=hexagonPerimeter2;fillColor=#b0e3e6;strokeColor=#0e8088;" name="model" vertex="1" parent="1">
          <mxGeometry x="1310" y="340" width="120" height="50" as="geometry" />
        </mxCell>
        <mxCell id="WC2whAqA1n3xQGrgogss-57" style="edgeStyle=orthogonalEdgeStyle;rounded=0;orthogonalLoop=1;jettySize=auto;html=1;exitX=0;exitY=0.5;exitDx=0;exitDy=0;entryX=1;entryY=0.5;entryDx=0;entryDy=0;" edge="1" parent="1" source="WC2whAqA1n3xQGrgogss-52" target="WC2whAqA1n3xQGrgogss-20">
          <mxGeometry relative="1" as="geometry" />
        </mxCell>
        <mxCell id="WC2whAqA1n3xQGrgogss-52" value="infer:deduce" style="rounded=1;whiteSpace=wrap;html=1;arcSize=50;fillColor=#bac8d3;strokeColor=#23445d;" name="infer:deduce" vertex="1" parent="1">
          <mxGeometry x="1140" y="230" width="100" height="50" as="geometry" />
        </mxCell>
      </root>
    </mxGraphModel>
  </diagram>
</mxfile>
